<svg width="53" height="53" viewBox="0 0 53 53" fill="none" xmlns="http://www.w3.org/2000/svg">
<path fill-rule="evenodd" clip-rule="evenodd" d="M0 0H53V53H0V0Z" fill="black"/>
<path fill-rule="evenodd" clip-rule="evenodd" d="M12.2756 13.0307C12.1851 12.4829 11.9363 11.6415 11.0656 11.6415C9.62949 11.6415 9.62949 13.4881 9.62949 14.5102C9.62949 16.1534 9.74257 16.6616 10.014 17.0908C10.2401 17.4409 10.7207 17.6329 11.1222 17.6329C11.2183 17.6329 11.8289 17.6555 12.4169 17.1586V15.7412H11.1448V14.4029H14.0114V17.9774C13.3046 18.4969 12.5357 19.0164 11.0317 19.0164C8.31774 19.0164 7.9785 16.543 7.9785 14.7812C7.9785 12.8274 8.2499 11.9521 8.88315 11.218C9.70865 10.2581 10.7207 10.2581 11.1561 10.2581C13.446 10.2581 13.7117 11.7997 13.8644 12.6862L12.2756 13.0307ZM16.8135 10.2581V17.4678H20.0443V18.8196H15.218V10.2581H16.8135ZM26.2783 14.7587C26.2783 15.8203 26.2668 19.0164 23.1584 19.0164C20.8487 19.0164 20.0443 17.2885 20.0443 14.5328C20.0443 12.3531 20.6763 10.2581 23.1469 10.2581C25.8991 10.2581 26.2783 12.7427 26.2783 14.7587ZM23.1699 17.6556C23.7559 17.6556 24.1237 17.2885 24.2903 16.9723C24.4741 16.6165 24.6063 16.2608 24.6063 14.3521C24.6063 13.5955 24.6063 11.6416 23.1699 11.6416C22.6873 11.6416 22.1989 11.8901 21.9346 12.6468C21.7565 13.1719 21.722 14.3521 21.722 14.9338C21.722 15.7017 21.7335 17.6556 23.1699 17.6556ZM29.8083 10.2581C31.7149 10.2581 32.263 11.359 32.263 12.3742C32.263 13.1272 31.9831 13.9086 30.9045 14.2736V14.3022C32.1988 14.5417 32.6128 15.4258 32.6128 16.4411C32.6128 17.4678 32.1055 18.8196 29.9891 18.8196H27.2837V10.2581H29.8083ZM28.8988 13.7147H29.3594C29.6742 13.7147 30.6479 13.7147 30.6479 12.6766C30.6479 11.6442 29.6976 11.6442 29.4469 11.6442H28.8988V13.7147ZM28.8988 17.4337H29.4469C30.0416 17.4337 30.9161 17.3481 30.9161 16.2473C30.9161 15.1122 29.8783 15.1008 29.4469 15.1008H28.8988V17.4337ZM36.9622 10.2581L39.3495 18.8196H37.6959L37.3064 17.1199H34.8739L34.4732 18.8196H32.8139L35.2238 10.2581H36.9622ZM36.9791 15.7224L36.1043 11.8495H36.0817L35.2013 15.7224H36.9791ZM41.6489 10.2581V17.4678H44.8797V18.8196H40.0534V10.2581H41.6489Z" fill="white"/>
<path fill-rule="evenodd" clip-rule="evenodd" d="M12.8319 23.129V21.7822H8.21057V30.3437H9.83198V26.6107H12.233V25.2582H9.83198V23.129H12.8319ZM16.6467 30.5406C19.7526 30.5406 19.7639 27.3482 19.7639 26.2804C19.7639 24.2665 19.3812 21.7823 16.6298 21.7823C14.1653 21.7823 13.5351 23.8792 13.5351 26.0536C13.5351 28.8144 14.3341 30.5406 16.6467 30.5406ZM16.6579 29.1794C17.2431 29.1794 17.6145 28.8143 17.7833 28.4934C17.9577 28.1393 18.0927 27.7852 18.0927 25.8764C18.0927 25.1184 18.0927 23.1654 16.6579 23.1654C16.1797 23.1654 15.6845 23.4143 15.4257 24.1723C15.2456 24.6924 15.2062 25.8764 15.2062 26.4573C15.2062 27.2264 15.2231 29.1794 16.6579 29.1794ZM25.1446 21.8996C24.5871 21.7935 23.9216 21.7823 23.859 21.7823H20.9694V30.3438H22.6019V26.7784H22.8579C23.5007 26.7784 23.7396 26.7784 24.3312 27.8793L25.6508 30.3438H27.4995L26.3676 28.0581C26.2822 27.9016 25.8329 27.1584 25.6622 26.9795C25.3655 26.666 25.1735 26.6015 24.9614 26.5303L24.9512 26.5269V26.5045C25.4574 26.3592 26.8226 25.9289 26.8226 24.2188C26.8226 22.7826 25.9409 22.0673 25.1446 21.8996ZM22.6019 25.4762H23.4267C24.371 25.4762 25.156 25.2862 25.156 24.2914C25.156 23.1793 24.0809 23.1793 23.5689 23.1793H22.6019V25.4762ZM32.4828 23.1291V21.7823H28.0018V30.3438H32.6232V28.9914H29.619V26.5157H32.2076V25.1633H29.619V23.1291H32.4828ZM37.2266 24.3993L37.2216 24.3689C37.1556 23.9622 37.0171 23.1101 36.1549 23.1101C35.704 23.1101 35.2355 23.3702 35.2355 23.9345C35.2355 24.6372 36.0027 24.9802 36.8284 25.3454C38.3334 26.0204 39.1533 26.7064 39.1533 27.9955C39.1533 29.3123 38.2456 30.5406 36.2545 30.5406C33.5372 30.5406 33.3908 28.5433 33.3264 27.6636L35.0481 27.5142C35.1067 28.2722 35.2706 29.1574 36.3306 29.1574C37.1739 29.1574 37.4901 28.5765 37.4901 28.1173C37.4901 27.3205 36.7171 26.9775 35.6337 26.5183C34.6616 26.1033 33.5665 25.5224 33.5665 24.0784C33.5665 22.8944 34.4215 21.7823 36.3072 21.7823C38.6438 21.7823 38.8546 23.4421 38.9073 24.3052L37.2266 24.3993ZM44.8797 23.1291V21.7823H39.3542V23.1291H41.3152V30.3438H42.9187V23.1291H44.8797Z" fill="white"/>
<path fill-rule="evenodd" clip-rule="evenodd" d="M35.8228 36.4015L35.822 36.396C35.7429 35.8615 35.5889 34.8199 34.6859 34.8199C33.4083 34.8199 33.4083 36.5829 33.4083 38.0171C33.4083 39.7802 33.5096 40.2564 33.7235 40.7099C33.9036 41.0897 34.2863 41.3731 34.6971 41.3731C35.6821 41.3731 35.8565 40.2053 35.9466 39.4174L37.6463 39.9729C37.3424 42.2802 36.0648 42.8867 34.7365 42.8867C31.9393 42.8867 31.6185 40.0126 31.6185 38.1362C31.6185 36.3108 31.748 33.3063 34.7084 33.3063C36.9597 33.3063 37.3649 34.9786 37.5731 35.999L35.8228 36.4015ZM11.0752 39.8386L10.0189 33.6058H8.21057L10.0189 42.9866H11.965L13.6011 36.123H13.6298L15.2602 42.9866H17.2006L19.0606 33.6058H17.2408L16.173 39.8157H16.1443L14.6861 33.6058H12.6023L11.1039 39.8386H11.0752ZM26.093 42.9866L23.4507 33.6058H21.5249L18.8597 42.9866H20.6938L21.1351 41.1231H23.829L24.2589 42.9866H26.093ZM23.4622 39.592L22.4993 35.3488H22.4764L21.502 39.592H23.4622ZM31.6185 35.0851V33.6058H25.5907V35.0851H27.7276V42.9866H29.4816V35.0851H31.6185ZM40.5854 37.3157V33.6058H38.8519V42.9866H40.5854V38.8352H43.1461V42.9866H44.8797V33.6058H43.1461V37.3157H40.5854Z" fill="white"/>
</svg>
