<svg width="201" height="34" viewBox="0 0 201 34" fill="none" xmlns="http://www.w3.org/2000/svg">
<path fill-rule="evenodd" clip-rule="evenodd" d="M71.2614 15.0997C71.7764 15.2447 72.2574 15.45 72.7049 15.7154C73.1524 15.9807 73.5234 16.3371 73.8175 16.7832C74.112 17.2302 74.2589 17.8273 74.2589 18.5759C74.2589 19.2878 74.1239 19.9091 73.8543 20.4402C73.5848 20.9717 73.2199 21.4122 72.7601 21.7622C72.3004 22.1121 71.767 22.3714 71.1603 22.5401C70.5537 22.7092 69.9123 22.7938 69.2386 22.7938C68.3923 22.7938 67.6081 22.6669 66.8845 22.4137C66.1609 22.16 65.4868 21.7497 64.8618 21.1823L66.9029 18.9741C67.197 19.3603 67.568 19.659 68.0155 19.8696C68.4626 20.0814 68.9257 20.1869 69.4039 20.1869C69.6366 20.1869 69.873 20.1596 70.1119 20.1052C70.3508 20.0512 70.5656 19.9695 70.7558 19.8608C70.946 19.7521 71.099 19.614 71.2156 19.4448C71.3317 19.2757 71.3902 19.0768 71.3902 18.8469C71.3902 18.4607 71.2397 18.1567 70.9394 17.9328C70.6392 17.7098 70.2621 17.5193 69.8084 17.3627C69.3548 17.206 68.8643 17.049 68.3375 16.892C67.8102 16.7353 67.3193 16.5239 66.8661 16.2586C66.4125 15.9928 66.0353 15.6429 65.7351 15.2084C65.4344 14.7739 65.2847 14.2006 65.2847 13.4886C65.2847 12.8009 65.4226 12.1973 65.6983 11.6783C65.974 11.1596 66.3421 10.7252 66.8019 10.3744C67.2617 10.0249 67.7918 9.7624 68.3923 9.58724C68.9932 9.41249 69.6125 9.32471 70.2498 9.32471C70.9853 9.32471 71.6962 9.42739 72.383 9.63274C73.0698 9.8377 73.6891 10.182 74.2405 10.6644L72.2729 12.7824C72.0398 12.4929 71.724 12.2786 71.3256 12.1397C70.9272 12.0012 70.5504 11.9319 70.195 11.9319C69.9864 11.9319 69.7716 11.9561 69.5511 12.004C69.3302 12.0523 69.122 12.128 68.9257 12.2303C68.7297 12.333 68.5702 12.4691 68.4475 12.6374C68.3248 12.8065 68.2638 13.0119 68.2638 13.2531C68.2638 13.6396 68.4107 13.9352 68.7052 14.1402C68.9993 14.3459 69.3699 14.5203 69.8178 14.6652C70.2649 14.8102 70.7464 14.9547 71.2614 15.0997ZM52.5583 15.851C53.0365 15.2176 53.2758 14.4481 53.2758 13.5429C53.2758 12.7944 53.1437 12.1699 52.8807 11.6689C52.6164 11.1684 52.2609 10.7702 51.8134 10.4742C51.3659 10.1787 50.8452 9.95038 50.2505 9.82354C49.6557 9.69671 49.0274 9.61658 48.3651 9.61658H43.5154V22.5018H46.3788V17.2672H47.6117L50.3331 22.5018H53.7724L50.4619 17.0719C51.3819 16.9032 52.0801 16.4844 52.5583 15.851ZM50.0668 14.3394C49.9134 14.5326 49.7199 14.674 49.4876 14.765C49.2859 14.8429 49.0644 14.8553 48.8221 14.8689L48.822 14.8689C48.7837 14.8711 48.7448 14.8732 48.7055 14.8757C48.5332 14.8865 48.3667 14.8757 48.2056 14.8652H48.2056H48.2056H48.2056H48.2056H48.2056H48.2056H48.2056C48.097 14.8581 47.991 14.8512 47.8874 14.8512H46.3788V12.0325H48.0715C48.3288 12.0325 48.5922 12.0547 48.8617 12.0905C49.1317 12.1267 49.371 12.1984 49.5792 12.3007C49.7874 12.4038 49.9592 12.5523 50.0942 12.7452C50.2288 12.9385 50.2963 13.1982 50.2963 13.524C50.2963 13.8747 50.2198 14.1465 50.0668 14.3394ZM57.8323 17.2672H63.559V14.4485H57.8323V12.4352H63.559V9.61658H54.9689V22.5018H63.968V19.6831H57.8323V17.2672ZM87.261 11.1443C86.636 10.5589 85.8944 10.1095 85.0362 9.79542C84.1776 9.48175 83.2396 9.32471 82.2223 9.32471C81.2046 9.32471 80.2667 9.48175 79.4085 9.79542C78.5499 10.1095 77.8087 10.5589 77.1832 11.1443C76.5578 11.7298 76.0706 12.4385 75.7209 13.2716C75.372 14.1039 75.1969 15.0337 75.1969 16.0592C75.1969 17.0852 75.372 18.0146 75.7209 18.8469C76.0706 19.68 76.5578 20.3891 77.1832 20.9745C77.8087 21.56 78.5499 22.0094 79.4085 22.3231C80.2667 22.6367 81.2046 22.7938 82.2223 22.7938C83.2396 22.7938 84.1776 22.6367 85.0362 22.3231C85.8944 22.0094 86.636 21.56 87.261 20.9745C87.8869 20.3891 88.374 19.68 88.7238 18.8469C89.0727 18.0146 89.2478 17.0852 89.2478 16.0592C89.2478 15.0337 89.0727 14.1039 88.7238 13.2716C88.374 12.4385 87.8869 11.7298 87.261 11.1443ZM85.1646 19.0192C85.52 18.6511 85.7929 18.2167 85.9831 17.7158C86.1729 17.2153 86.2682 16.6632 86.2682 16.0592C86.2682 15.4681 86.1729 14.9189 85.9831 14.4119C85.7929 13.905 85.52 13.4677 85.1646 13.0992C84.8091 12.7312 84.3829 12.4449 83.8863 12.2391C83.3897 12.0342 82.835 11.9319 82.2223 11.9319C81.6091 11.9319 81.0544 12.0342 80.5578 12.2391C80.0613 12.4449 79.6354 12.7312 79.2796 13.0992C78.9241 13.4677 78.6513 13.905 78.4615 14.4119C78.2713 14.9189 78.1764 15.4681 78.1764 16.0592C78.1764 16.6632 78.2713 17.2153 78.4615 17.7158C78.6513 18.2167 78.9241 18.6511 79.2796 19.0192C79.6354 19.3872 80.0613 19.6739 80.5578 19.8793C81.0544 20.0846 81.6091 20.1869 82.2223 20.1869C82.835 20.1869 83.3897 20.0846 83.8863 19.8793C84.3829 19.6739 84.8091 19.3872 85.1646 19.0192ZM98.5806 18.5215C98.7095 18.1837 98.7373 17.8152 98.7373 17.417V9.6166H101.601V17.5257C101.601 18.2859 101.522 18.9862 101.289 19.6256C101.057 20.2654 100.749 20.8207 100.289 21.2914C99.8286 21.7621 99.2531 22.1302 98.5667 22.3955C97.8799 22.6609 97.0843 22.7937 96.1897 22.7937C95.2825 22.7937 94.4766 22.6609 93.7898 22.3955C93.1034 22.1302 92.5124 21.7621 92.0526 21.2914C91.5928 20.8207 91.2104 20.2654 90.9772 19.6256C90.7444 18.9862 90.5563 18.2859 90.5563 17.5257V9.6166H93.4196V17.417C93.4196 17.8152 93.5579 18.1837 93.6868 18.5215C93.8152 18.8593 94.0704 19.1521 94.3032 19.3993C94.5364 19.6469 94.8141 19.8398 95.1389 19.9787C95.4637 20.1176 95.8142 20.1869 96.1942 20.1869C96.5738 20.1869 96.9191 20.1176 97.2377 19.9787C97.5564 19.8398 97.8235 19.6469 98.0562 19.3993C98.2894 19.1521 98.4518 18.8593 98.5806 18.5215ZM113.063 15.851C113.541 15.2176 113.78 14.4481 113.78 13.543C113.78 12.7944 113.648 12.1699 113.385 11.669C113.121 11.1685 112.765 10.7702 112.318 10.4743C111.87 10.1787 111.35 9.9504 110.755 9.82357C110.16 9.69673 109.532 9.6166 108.869 9.6166H103.646V22.5018H106.509V17.2672H108.116L110.837 22.5018H114.277L110.966 17.0719C111.886 16.9032 112.585 16.4844 113.063 15.851ZM109.992 14.7651C110.224 14.6741 110.418 14.5328 110.571 14.3395C110.724 14.1466 110.801 13.8748 110.801 13.5241C110.801 13.1983 110.733 12.9386 110.599 12.7453C110.464 12.5525 110.292 12.4039 110.084 12.3008C109.875 12.1985 109.636 12.1268 109.366 12.0906C109.096 12.0548 108.833 12.0326 108.576 12.0326H106.509V14.8513H108.392C108.495 14.8513 108.601 14.8582 108.71 14.8653C108.871 14.8758 109.038 14.8867 109.21 14.8758C109.25 14.8733 109.288 14.8712 109.327 14.869C109.569 14.8554 109.79 14.843 109.992 14.7651ZM121.21 20.187C121.798 20.187 122.32 20.0666 122.773 19.8246C123.227 19.5834 123.601 19.2455 123.895 18.8111L126.286 20.5671C125.734 21.3277 125.035 21.8886 124.189 22.251C123.343 22.6126 122.472 22.7938 121.578 22.7938C120.56 22.7938 119.622 22.6368 118.764 22.3231C117.905 22.0094 117.164 21.56 116.539 20.9746C115.913 20.3891 115.426 19.68 115.076 18.8469C114.728 18.0146 114.552 17.0852 114.552 16.0593C114.552 15.0337 114.728 14.1039 115.076 13.2716C115.426 12.4385 115.913 11.7298 116.539 11.1444C117.164 10.5589 117.905 10.1095 118.764 9.79544C119.622 9.48177 120.56 9.32473 121.578 9.32473C121.946 9.32473 122.329 9.35815 122.727 9.42419C123.125 9.49062 123.518 9.59653 123.904 9.74108C124.291 9.88564 124.661 10.0793 125.017 10.3205C125.372 10.5621 125.691 10.8577 125.973 11.2076L123.766 12.9817C123.484 12.6439 123.138 12.3846 122.727 12.203C122.316 12.0222 121.841 11.932 121.302 11.932C120.762 11.932 120.263 12.0342 119.803 12.2392C119.343 12.445 118.945 12.7313 118.608 13.0993C118.27 13.4677 118.007 13.905 117.817 14.412C117.627 14.9189 117.532 15.4682 117.532 16.0593C117.532 16.6633 117.627 17.2153 117.817 17.7158C118.007 18.2167 118.267 18.6512 118.599 19.0192C118.929 19.3873 119.319 19.674 119.766 19.8793C120.214 20.0847 120.695 20.187 121.21 20.187ZM130.234 17.2672H135.961V14.4486H130.234V12.4352H136.37V9.6166H127.371V22.5018H136.779V19.6832H130.234V17.2672ZM150.635 20.8912L153.871 9.6166H155.122L151.333 22.5018H149.844L146.552 11.2272H146.515L143.223 22.5018H141.733L137.945 9.6166H139.196L142.432 20.8912H142.469L145.761 9.6166H147.306L150.598 20.8912H150.635ZM160.492 9.6166L154.809 22.5018H156.078L157.549 18.8778H164.446L165.862 22.5018H167.223L161.742 9.6166H160.492ZM161.061 11.0489L158.027 18.0726H164.004L161.061 11.0489ZM171.548 10.8246H167.049V9.6166H177.275V10.8246H172.776V22.5018H171.548V10.8246ZM187.581 20.6122C187.274 20.8594 186.952 21.0648 186.615 21.2278C186.278 21.3909 185.932 21.5117 185.576 21.5898C185.221 21.6684 184.878 21.7074 184.546 21.7074C183.7 21.7074 182.938 21.5629 182.257 21.2729C181.577 20.9834 180.997 20.5852 180.519 20.0782C180.041 19.5713 179.673 18.9741 179.415 18.286C179.158 17.5982 179.029 16.8557 179.029 16.0593C179.029 15.2628 179.158 14.5203 179.415 13.8325C179.673 13.1444 180.041 12.5472 180.519 12.0403C180.997 11.5333 181.577 11.1351 182.257 10.8452C182.938 10.5561 183.7 10.4107 184.546 10.4107C185.208 10.4107 185.855 10.55 186.487 10.8271C187.118 11.1053 187.636 11.5458 188.04 12.149L189.034 11.334C188.457 10.61 187.786 10.0942 187.02 9.78618C186.254 9.47855 185.429 9.32473 184.546 9.32473C183.554 9.32473 182.643 9.49385 181.815 9.83168C180.988 10.1699 180.28 10.6374 179.691 11.2346C179.103 11.8321 178.643 12.5412 178.312 13.3618C177.981 14.1825 177.815 15.0816 177.815 16.0593C177.815 17.0365 177.981 17.9393 178.312 18.7656C178.643 19.5926 179.103 20.3045 179.691 20.9021C180.28 21.4992 180.988 21.9643 181.815 22.2961C182.643 22.6275 183.554 22.7938 184.546 22.7938C185.503 22.7938 186.392 22.6126 187.213 22.251C188.034 21.8886 188.758 21.2915 189.383 20.4584L188.39 19.7162C188.157 20.0666 187.887 20.3649 187.581 20.6122ZM192.41 15.2539H199.773V9.6166H201V22.5018H199.773V16.4619H192.41V22.5018H191.183V9.6166H192.41V15.2539Z" fill="#222222"/>
<path fill-rule="evenodd" clip-rule="evenodd" d="M10.6697 5.85083L0 16.5213L7.53209 24.0534L18.2025 13.3829L10.6697 5.85083Z" fill="#222222"/>
<path fill-rule="evenodd" clip-rule="evenodd" d="M19.7418 11.7016L24.0534 7.39051L16.6633 0L12.3517 4.31113L19.7418 11.7016Z" fill="#222222"/>
<path fill-rule="evenodd" clip-rule="evenodd" d="M22.4842 27.3037L33.1547 16.6333L25.6226 9.1012L14.9521 19.7717L22.4842 27.3037Z" fill="#222222"/>
<path fill-rule="evenodd" clip-rule="evenodd" d="M13.4124 21.453L9.10132 25.7641L16.4918 33.1546L20.803 28.8435L13.4124 21.453Z" fill="#222222"/>
</svg>
