<svg width="149" height="35" viewBox="0 0 149 35" fill="none" xmlns="http://www.w3.org/2000/svg">
<path d="M49.9349 17.23L50.4315 17.4865C53.0363 16.1316 55.4357 14.9148 57.7756 14.199C56.2712 13.5589 54.6057 12.6918 52.82 11.7623C47.3588 8.92099 40.5655 5.38474 32.3341 5.38474C24.1027 5.38474 17.3061 8.92099 11.867 11.7623C8.25129 13.6477 5.12781 15.2722 2.82769 15.2722H0V21.4392H2.80562C6.62002 21.4392 10.3881 19.4903 14.7278 17.23C19.8391 14.5696 25.6324 11.5551 32.333 11.5551C39.0336 11.5551 44.8236 14.5696 49.9349 17.23Z" fill="url(#paint0_linear_1182_263)"/>
<path d="M61.878 15.2722C58.0636 15.2722 54.2956 17.2256 49.9514 19.4815C44.8236 22.1419 39.0336 25.1684 32.333 25.1684C25.6335 25.1684 19.8391 22.1419 14.7278 19.4815C14.5623 19.3971 14.3967 19.3138 14.2367 19.225C11.6297 20.5799 9.22585 21.801 6.8871 22.5124C8.39586 23.1526 10.0614 24.0196 11.846 24.9492C17.305 27.7905 24.1027 31.3267 32.333 31.3267C40.5644 31.3267 47.3577 27.7905 52.8211 24.9492C56.4357 23.0682 59.5603 21.4393 61.8604 21.4393H64.6627V15.2722H61.878Z" fill="url(#paint1_linear_1182_263)"/>
<path d="M84.0785 26.7922C82.7104 26.7922 81.6143 26.459 80.79 25.7925C79.9656 25.126 79.5535 23.9422 79.5535 22.2409V16.5584H77.3173V13.7434H79.5535L79.9481 10.2444H82.9209V13.7434H86.4462V16.5584H82.9209V22.2672C82.9209 22.8986 83.0524 23.3371 83.3155 23.5826C83.5961 23.8106 84.0697 23.9246 84.7362 23.9246H86.3673V26.7922H84.0785ZM90.3897 26.7922V13.7434H93.3889L93.7045 16.1901C94.1781 15.3482 94.8183 14.6817 95.625 14.1907C96.4494 13.682 97.414 13.4277 98.5189 13.4277V16.9793H97.5718C96.8352 16.9793 96.1775 17.0933 95.5987 17.3213C95.02 17.5493 94.5639 17.9439 94.2307 18.5052C93.915 19.0664 93.7572 19.8469 93.7572 20.8466V26.7922H90.3897ZM106.371 27.1079C105.249 27.1079 104.328 26.9325 103.609 26.5818C102.89 26.2134 102.355 25.7311 102.004 25.1348C101.654 24.5385 101.478 23.8808 101.478 23.1617C101.478 21.9515 101.952 20.9694 102.899 20.2152C103.846 19.461 105.267 19.084 107.161 19.084H110.476V18.7683C110.476 17.8738 110.221 17.2161 109.713 16.7952C109.204 16.3742 108.573 16.1638 107.818 16.1638C107.134 16.1638 106.538 16.3304 106.029 16.6636C105.521 16.9793 105.205 17.4529 105.082 18.0842H101.794C101.882 17.1372 102.197 16.3128 102.741 15.6113C103.302 14.9097 104.021 14.3748 104.898 14.0065C105.775 13.6206 106.757 13.4277 107.845 13.4277C109.704 13.4277 111.168 13.8925 112.238 14.822C113.308 15.7516 113.843 17.067 113.843 18.7683V26.7922H110.975L110.66 24.6876C110.274 25.3891 109.73 25.9679 109.029 26.4239C108.345 26.8799 107.459 27.1079 106.371 27.1079ZM107.134 24.4771C108.099 24.4771 108.844 24.1614 109.371 23.53C109.914 22.8986 110.256 22.1182 110.397 21.1886H107.529C106.635 21.1886 105.994 21.3552 105.609 21.6885C105.223 22.0042 105.03 22.3988 105.03 22.8723C105.03 23.3809 105.223 23.7756 105.609 24.0562C105.994 24.3368 106.503 24.4771 107.134 24.4771ZM123.502 27.1079C122.344 27.1079 121.327 26.9238 120.45 26.5554C119.573 26.1696 118.872 25.6434 118.346 24.977C117.819 24.3105 117.504 23.5388 117.398 22.6619H120.792C120.897 23.1705 121.178 23.6089 121.634 23.9773C122.108 24.328 122.713 24.5034 123.449 24.5034C124.186 24.5034 124.721 24.3543 125.054 24.0562C125.405 23.758 125.58 23.416 125.58 23.0302C125.58 22.4689 125.335 22.0918 124.844 21.8989C124.353 21.6885 123.669 21.4868 122.792 21.2938C122.23 21.1711 121.66 21.022 121.082 20.8466C120.503 20.6712 119.968 20.452 119.477 20.1889C119.003 19.9083 118.617 19.5575 118.319 19.1366C118.021 18.6981 117.872 18.1632 117.872 17.5318C117.872 16.3742 118.328 15.4008 119.24 14.6116C120.17 13.8223 121.467 13.4277 123.134 13.4277C124.677 13.4277 125.905 13.7873 126.817 14.5063C127.746 15.2254 128.299 16.2164 128.474 17.4792H125.291C125.098 16.5145 124.37 16.0322 123.107 16.0322C122.476 16.0322 121.985 16.155 121.634 16.4005C121.301 16.6461 121.134 16.953 121.134 17.3213C121.134 17.7072 121.389 18.0141 121.897 18.2421C122.406 18.4701 123.081 18.6806 123.923 18.8735C124.835 19.084 125.668 19.3207 126.422 19.5838C127.194 19.8293 127.808 20.2064 128.264 20.7151C128.72 21.2061 128.948 21.9165 128.948 22.846C128.965 23.6528 128.755 24.3806 128.316 25.0296C127.878 25.6785 127.246 26.1871 126.422 26.5554C125.598 26.9238 124.624 27.1079 123.502 27.1079ZM139.323 27.1079C138.008 27.1079 136.842 26.8273 135.824 26.2661C134.807 25.7048 134.009 24.9156 133.43 23.8983C132.852 22.8811 132.562 21.706 132.562 20.373C132.562 19.0226 132.843 17.8212 133.404 16.7688C133.983 15.7165 134.772 14.901 135.772 14.3222C136.789 13.7259 137.982 13.4277 139.35 13.4277C140.63 13.4277 141.761 13.7083 142.743 14.2696C143.726 14.8308 144.489 15.6025 145.032 16.5847C145.593 17.5493 145.874 18.6279 145.874 19.8206C145.874 20.0135 145.865 20.2152 145.848 20.4257C145.848 20.6361 145.839 20.8554 145.821 21.0834H135.903C135.973 22.1006 136.324 22.8986 136.956 23.4774C137.605 24.0562 138.385 24.3456 139.297 24.3456C139.981 24.3456 140.551 24.1965 141.007 23.8983C141.481 23.5826 141.831 23.1792 142.059 22.6882H145.479C145.234 23.5125 144.822 24.2666 144.243 24.9507C143.682 25.6171 142.98 26.1433 142.138 26.5291C141.314 26.915 140.376 27.1079 139.323 27.1079ZM139.35 16.1638C138.525 16.1638 137.798 16.4005 137.166 16.8741C136.535 17.3301 136.131 18.0316 135.956 18.9787H142.454C142.401 18.1193 142.086 17.4353 141.507 16.9267C140.928 16.4181 140.209 16.1638 139.35 16.1638Z" fill="#222222"/>
<defs>
<linearGradient id="paint0_linear_1182_263" x1="0" y1="13.412" x2="57.7756" y2="13.412" gradientUnits="userSpaceOnUse">
<stop/>
<stop offset="0.17" stop-opacity="0.99"/>
<stop offset="0.3" stop-opacity="0.95"/>
<stop offset="0.43" stop-opacity="0.88"/>
<stop offset="0.54" stop-opacity="0.78"/>
<stop offset="0.65" stop-opacity="0.65"/>
<stop offset="0.76" stop-opacity="0.49"/>
<stop offset="0.86" stop-opacity="0.31"/>
<stop offset="0.96" stop-opacity="0.1"/>
<stop offset="1" stop-color="white" stop-opacity="0"/>
</linearGradient>
<linearGradient id="paint1_linear_1182_263" x1="6.8871" y1="23.2995" x2="64.6627" y2="23.2995" gradientUnits="userSpaceOnUse">
<stop stop-color="white" stop-opacity="0"/>
<stop offset="0.04" stop-opacity="0.1"/>
<stop offset="0.14" stop-opacity="0.31"/>
<stop offset="0.24" stop-opacity="0.49"/>
<stop offset="0.35" stop-opacity="0.65"/>
<stop offset="0.46" stop-opacity="0.78"/>
<stop offset="0.57" stop-opacity="0.88"/>
<stop offset="0.7" stop-opacity="0.95"/>
<stop offset="0.83" stop-opacity="0.99"/>
<stop offset="1"/>
</linearGradient>
</defs>
</svg>
