<svg xmlns="http://www.w3.org/2000/svg" width="12" height="12" viewBox="0 0 12 12" fill="inherit" stroke="inherit">
  <path d="M11.1088 1.17989C11.0543 1.04925 10.9508 0.945722 10.8202 0.891261M11.1088 1.17989C11.1361 1.24508 11.15 1.31483 11.15 1.38466V7.53845C11.15 7.83403 10.9105 8.07306 10.6154 8.07306C10.3203 8.07306 10.0808 7.83404 10.0808 7.53845V2.67535L1.76271 10.9932L1.76265 10.9933L1.65658 10.8872C1.58164 10.9623 1.48317 10.9999 1.3847 10.9999C1.28623 10.9999 1.18776 10.9623 1.11281 10.8873C0.962397 10.7369 0.962397 10.4938 1.11281 10.3434L10.8202 0.891261M11.1088 1.17989C11.1088 1.17996 11.1088 1.18002 11.1088 1.18008L10.9704 1.23772L11.1088 1.17989ZM10.8202 0.891261C10.7549 0.863898 10.6852 0.85 10.6154 0.85H4.46157C4.1665 0.85 3.92696 1.08903 3.92696 1.38461C3.92696 1.68019 4.1665 1.91922 4.46157 1.91922H9.32468L10.8199 0.891136C10.82 0.891177 10.8201 0.891219 10.8202 0.891261Z" fill="inherit" stroke="inherit" stroke-width="0.3"/>
</svg>