<svg width="238" height="287" viewBox="0 0 238 287" fill="none" xmlns="http://www.w3.org/2000/svg">
<g opacity="0.08">
<path d="M98.2376 202.354C98.2376 213.62 107.371 222.753 118.637 222.753C129.903 222.753 139.036 213.62 139.036 202.354C139.036 191.087 129.903 181.954 118.637 181.954C107.371 181.954 98.2376 191.087 98.2376 202.354Z" fill="white"/>
<path d="M98.2376 156.898C98.2376 168.164 107.371 177.297 118.637 177.297C129.903 177.297 139.036 168.164 139.036 156.898C139.036 145.632 129.903 136.499 118.637 136.499C107.371 136.499 98.2376 145.632 98.2376 156.898Z" fill="white"/>
<path d="M98.2376 111.442C98.2376 122.708 107.371 131.841 118.637 131.841C129.903 131.841 139.036 122.708 139.036 111.442C139.036 100.176 129.903 91.0428 118.637 91.0428C107.371 91.0428 98.2376 100.176 98.2376 111.442Z" fill="white"/>
<path d="M98.2376 65.9863C98.2376 77.2525 107.371 86.3856 118.637 86.3856C129.903 86.3856 139.036 77.2525 139.036 65.9863C139.036 54.7201 129.903 45.587 118.637 45.587C107.371 45.587 98.2376 54.7201 98.2376 65.9863Z" fill="white"/>
<path d="M98.2376 20.5392C98.2376 31.8055 107.371 40.9385 118.637 40.9385C129.903 40.9385 139.036 31.8055 139.036 20.5392C139.036 9.27303 129.903 0.139953 118.637 0.139953C107.371 0.139952 98.2376 9.27303 98.2376 20.5392Z" fill="white"/>
<path d="M2.92302e-06 169.736C2.43055e-06 181.002 9.13308 190.135 20.3993 190.135C31.6655 190.135 40.7986 181.002 40.7986 169.736C40.7986 158.47 31.6655 149.336 20.3993 149.336C9.13308 149.336 3.41548e-06 158.47 2.92302e-06 169.736Z" fill="white"/>
<path d="M32.1382 201.874C32.1382 213.14 41.2713 222.273 52.5375 222.273C63.8038 222.273 72.9368 213.14 72.9368 201.874C72.9368 190.608 63.8038 181.475 52.5375 181.475C41.2713 181.475 32.1382 190.608 32.1382 201.874Z" fill="white"/>
<path d="M64.2765 234.021C64.2765 245.287 73.4096 254.42 84.6758 254.42C95.942 254.42 105.075 245.287 105.075 234.021C105.075 222.755 95.942 213.622 84.6758 213.622C73.4096 213.622 64.2765 222.755 64.2765 234.021Z" fill="white"/>
<path d="M98.2375 265.741C98.2375 277.007 107.371 286.14 118.637 286.14C129.903 286.14 139.036 277.007 139.036 265.741C139.036 254.475 129.903 245.341 118.637 245.341C107.371 245.341 98.2375 254.475 98.2375 265.741Z" fill="white"/>
<path d="M136.716 246.31C143.739 255.12 156.574 256.569 165.383 249.546C174.193 242.523 175.642 229.689 168.619 220.879C161.597 212.07 148.762 210.621 139.952 217.643C131.143 224.666 129.694 237.501 136.716 246.31Z" fill="white"/>
<path d="M164.389 201.464C164.389 212.73 173.522 221.863 184.788 221.863C196.055 221.863 205.188 212.73 205.188 201.464C205.188 190.198 196.055 181.065 184.788 181.065C173.522 181.065 164.389 190.198 164.389 201.464Z" fill="white"/>
<path d="M196.527 169.317C196.527 180.583 205.661 189.716 216.927 189.716C228.193 189.716 237.326 180.583 237.326 169.317C237.326 158.051 228.193 148.918 216.927 148.918C205.661 148.918 196.527 158.051 196.527 169.317Z" fill="white"/>
</g>
</svg>
