<svg xmlns="http://www.w3.org/2000/svg" width="22" height="20" viewBox="0 0 22 20" fill="inherit">
  <path d="M18.3607 5.84931C18.2657 5.6786 18.0668 5.59413 17.8767 5.6434C17.6884 5.69268 17.5564 5.86339 17.5564 6.05873C17.5564 8.26737 17.025 10.0079 16.5375 11.1659C16.4196 10.1363 15.9866 8.88684 14.5735 7.94355C13.6759 7.3452 13.1445 6.62541 12.9931 5.80355C12.6869 4.15279 13.9065 2.4334 14.4908 1.60802C14.6984 1.31589 14.7847 1.19094 14.8234 1.06599C14.8638 0.935756 14.841 0.793206 14.76 0.682334C14.6791 0.571463 14.5506 0.506348 14.4133 0.506348C12.4036 0.506348 10.5011 1.14518 8.91197 2.35421C8.72367 2.49852 8.68671 2.76778 8.83102 2.95608C8.97533 3.14439 9.24459 3.18135 9.43289 3.03704C10.6507 2.11135 12.0709 1.55523 13.5827 1.40564C12.9174 2.36829 11.8158 4.15631 12.1484 5.95842C12.3437 7.01786 13.0001 7.92419 14.0965 8.6563C16.2348 10.0818 15.5977 12.3538 15.7121 13.0155C15.7455 13.2073 15.9022 13.3516 16.0958 13.3692C16.2858 13.3868 16.4653 13.276 16.5357 13.0982C16.7082 12.7286 18.0474 10.6608 18.3537 7.39095C18.4487 7.52294 18.5473 7.65669 18.6476 7.7922C19.8126 9.37784 21.1343 11.1764 21.1343 14.0204C21.1343 15.5356 20.638 17.1265 19.6982 18.6348H16.7082V17.9537L19.1597 15.5022C19.3269 15.335 19.3269 15.0622 19.1597 14.895C18.9925 14.7278 18.7197 14.7278 18.5525 14.895L16.7082 16.7394V15.1995C16.7082 14.9619 16.5164 14.7701 16.2788 14.7701C16.0412 14.7701 15.8494 14.9619 15.8494 15.1995V18.6365H11.4233V15.3772L13.8748 12.9257C14.042 12.7586 14.042 12.4858 13.8748 12.3186C13.7076 12.1514 13.4348 12.1514 13.2676 12.3186L11.4233 14.1629V8.75485C11.4233 8.51727 11.2315 8.32544 10.9939 8.32544C10.7563 8.32544 10.5645 8.51727 10.5645 8.75485V11.5847L8.72015 9.74038C8.55296 9.57319 8.28018 9.57319 8.11299 9.74038C7.9458 9.90756 7.9458 10.1803 8.11299 10.3475L10.5645 12.799V18.6365H6.26865V13.9095C6.26865 13.6719 6.07682 13.4801 5.83924 13.4801C5.60166 13.4801 5.40983 13.6719 5.40983 13.9095V15.4494L3.56549 13.605C3.39831 13.4379 3.12553 13.4379 2.95834 13.605C2.79115 13.7722 2.79115 14.045 2.95834 14.2122L5.40983 16.6637V18.6348H2.24559C1.33574 17.167 0.855296 15.5761 0.855296 14.0204C0.855296 11.37 1.72291 9.02763 2.4515 7.52646C2.84219 6.7222 3.2364 6.06225 3.55493 5.57829C3.53206 7.2484 3.50214 9.53271 5.49255 11.5231C5.61574 11.6463 5.80053 11.6833 5.96067 11.6164C6.12082 11.5495 6.22641 11.3929 6.22641 11.2187V9.49751C6.22641 8.20753 6.51855 6.97562 7.09755 5.83699C7.2049 5.6258 7.12043 5.3671 6.90924 5.25975C6.69806 5.1524 6.43936 5.23687 6.332 5.44806C5.69317 6.70812 5.36936 8.07202 5.36936 9.49751V10.022C4.37503 8.52079 4.39791 6.91755 4.41727 5.58533C4.42431 5.13832 4.42959 4.71419 4.39439 4.33934C4.40495 4.02608 4.09345 3.81314 3.80835 3.92225C3.33495 4.10352 2.04321 6.42478 1.77219 6.96858C0.964408 8.58942 0 11.1272 0 14.0204C0 15.8119 0.571957 17.6387 1.65428 19.2982C1.73347 19.4197 1.86898 19.4936 2.01505 19.4936H19.9393C20.0854 19.4936 20.2191 19.4197 20.3001 19.2982C21.4123 17.5929 22.0001 15.7679 22.0001 14.0204C22.0001 10.8948 20.5289 8.89212 19.3462 7.2836C18.9731 6.775 18.6194 6.29455 18.3677 5.84579L18.3607 5.84931Z" fill="inherit"/>
  <path d="M7.41971 3C7.65192 3 7.83941 3.18749 7.83941 3.41971C7.83941 3.65192 7.65192 3.83941 7.41971 3.83941C7.18749 3.83941 7 3.65192 7 3.41971C7 3.18749 7.18749 3 7.41971 3Z" fill="inherit"/>
</svg>