<svg width="25" height="25" viewBox="0 0 25 25" fill="none" xmlns="http://www.w3.org/2000/svg">
<path fill-rule="evenodd" clip-rule="evenodd" d="M1.84766 0C0.827539 0 0 0.802035 0 1.79013V23.2008C0 24.189 0.827637 24.9904 1.84766 24.9904H23.1523C24.1729 24.9904 25 24.1889 25 23.2005V1.79013C25 0.802035 24.1729 0 23.1523 0H1.84766ZM7.59824 9.66178V20.9125H3.85723V9.66178H7.59824ZM7.84483 6.18236C7.84483 7.26202 7.03281 8.12595 5.72852 8.12595L5.72822 8.12585H5.704C4.44844 8.12585 3.63672 7.26192 3.63672 6.18226C3.63672 5.07809 4.47295 4.23828 5.75332 4.23828C7.03281 4.23828 7.82041 5.07809 7.84483 6.18236ZM13.4097 20.9125H9.66895L9.66885 20.9129C9.66885 20.9129 9.71797 10.7176 9.66914 9.66217H13.41V11.2547C13.9072 10.4882 14.7972 9.39802 16.7815 9.39802C19.2428 9.39802 21.0881 11.0061 21.0881 14.4617V20.9125H17.3475V14.8943C17.3475 13.3817 16.8058 12.3501 15.4524 12.3501C14.4188 12.3501 13.8032 13.0458 13.5329 13.7179C13.4341 13.9578 13.4097 14.2945 13.4097 14.6303V20.9125Z" fill="white"/>
</svg>
