<svg width="37" height="36" viewBox="0 0 37 36" fill="none" xmlns="http://www.w3.org/2000/svg">
<path id="Vector" d="M3.55434 36C2.72391 36 2.00724 35.6986 1.40434 35.0957C0.801447 34.4928 0.5 33.7761 0.5 32.9457V3.05434C0.5 2.22391 0.801447 1.50724 1.40434 0.904345C2.00724 0.30145 2.72391 0 3.55434 0H33.4457C34.2761 0 34.9928 0.30145 35.5957 0.904345C36.1986 1.50724 36.5 2.22391 36.5 3.05434V32.9457C36.5 33.7761 36.1986 34.4928 35.5957 35.0957C34.9928 35.6986 34.2761 36 33.4457 36H3.55434ZM3.55434 33.5973H33.4457C33.6086 33.5973 33.7579 33.5294 33.8937 33.3937C34.0294 33.2579 34.0973 33.1086 34.0973 32.9457V3.05434C34.0973 2.89143 34.0294 2.74208 33.8937 2.6063C33.7579 2.47056 33.6086 2.40269 33.4457 2.40269H3.55434C3.39143 2.40269 3.24208 2.47056 3.1063 2.6063C2.97056 2.74208 2.90269 2.89143 2.90269 3.05434V32.9457C2.90269 33.1086 2.97056 33.2579 3.1063 33.3937C3.24208 33.5294 3.39143 33.5973 3.55434 33.5973ZM7.23175 28.1769H29.9841L23.1181 19.0426L16.7204 27.1996L12.367 21.5146L7.23175 28.1769ZM11.0956 12.8484C11.7233 12.8484 12.2556 12.6274 12.6927 12.1853C13.1298 11.7432 13.3484 11.2084 13.3484 10.5808C13.3484 9.95317 13.1274 9.4208 12.6853 8.98372C12.2432 8.5466 11.7084 8.32804 11.0808 8.32804C10.4532 8.32804 9.9208 8.54907 9.48372 8.99113C9.0466 9.43319 8.82804 9.96803 8.82804 10.5956C8.82804 11.2233 9.04907 11.7556 9.49113 12.1927C9.93319 12.6298 10.468 12.8484 11.0956 12.8484Z" fill="#1E1E1E"/>
</svg>
