<svg xmlns="http://www.w3.org/2000/svg" width="28" height="28" viewBox="0 0 28 28" fill="none">
  <path d="M2.87154 20.5047L3.69891 21.2806C3.91358 21.4819 4.249 21.4774 4.45696 21.2672L5.9328 19.7913H8.5446V26.8843H6.25257V24.1563C6.25257 23.8544 6.00883 23.6106 5.70695 23.6106C5.40508 23.6106 5.16134 23.8544 5.16134 24.1563V26.8843H2.86931V20.5047H2.87154ZM8.33664 12.5597C7.49362 13.1143 6.47171 13.4094 5.38271 13.4094H4.17073C5.59068 12.2824 6.82502 10.9899 7.85587 9.54764C8.26956 9.45148 8.66535 9.28825 9.0276 9.06016C9.53744 10.252 10.2351 11.0436 10.2709 11.0816C10.3738 11.1979 10.5213 11.2627 10.6779 11.2627C10.8322 11.2627 10.982 11.1957 11.0848 11.0816C11.1206 11.0414 11.8183 10.252 12.3281 9.06016C12.6904 9.28825 13.0862 9.45148 13.4999 9.54764C14.5598 11.0324 15.7986 12.345 17.1939 13.4653H15.9753C14.9399 13.4653 13.918 13.1523 13.0191 12.5619C12.7664 12.3965 12.4265 12.4658 12.261 12.7207C11.7959 13.4385 11.2369 14.163 10.6779 14.8092C10.1233 14.1652 9.5598 13.4385 9.09469 12.7207C8.92921 12.4658 8.58932 12.3965 8.33664 12.5619V12.5597ZM15.3939 21.616L16.787 24.4022C16.8652 24.5588 17.0151 24.6683 17.1872 24.6974C17.3594 24.7265 17.5361 24.6683 17.6613 24.5453L18.3657 23.841V26.8888H16.1832V25.7976C16.1832 25.4957 15.9395 25.252 15.6376 25.252C15.3357 25.252 15.092 25.4957 15.092 25.7976V26.8888H12.9095V22.8615L15.3939 21.6205V21.616ZM11.8183 26.8843H9.63583V15.2677C10.0048 15.7082 10.2619 15.9832 10.2821 16.0033C10.3849 16.1129 10.528 16.1755 10.6779 16.1755C10.8277 16.1755 10.9708 16.1129 11.0737 16.0056C11.0938 15.9832 11.3979 15.6612 11.8161 15.1536V26.8866L11.8183 26.8843ZM19.4569 20.1156L21.7489 21.2247V22.5194C21.7489 22.8213 21.9927 23.065 22.2945 23.065C22.5964 23.065 22.8402 22.8213 22.8402 22.5194V21.1084L24.1572 19.7913H25.1322V26.8843H22.8402V25.7931C22.8402 25.4912 22.5964 25.2475 22.2945 25.2475C21.9927 25.2475 21.7489 25.4912 21.7489 25.7931V26.8843H19.4569V20.1156ZM0.579512 27.9756H27.422C27.7239 27.9756 27.9676 27.7318 27.9676 27.43C27.9676 27.1281 27.7239 26.8843 27.422 26.8843H26.2212V19.2457C26.2212 18.9438 25.9775 18.7001 25.6756 18.7001H23.9292C23.7838 18.7001 23.6452 18.7582 23.5423 18.8589L22.1805 20.2207L19.1461 18.7538C18.9761 18.671 18.7771 18.6822 18.6184 18.7828C18.4596 18.8835 18.3634 19.0579 18.3634 19.2457V22.2936L17.422 23.235L16.1228 20.6388C15.9887 20.3683 15.66 20.2609 15.3916 20.3951L12.9073 21.6361V13.7627C13.8599 14.2815 14.9109 14.5521 15.973 14.5521H18.8599C19.0991 14.5521 19.3116 14.3956 19.3809 14.1652C19.4502 13.9349 19.3608 13.6867 19.1617 13.5525C17.5584 12.4837 16.1407 11.1711 14.9355 9.64155H17.223C17.4757 9.64155 17.6948 9.46713 17.753 9.22116C17.8111 8.97519 17.6926 8.72027 17.4667 8.60846C16.5209 8.13664 15.6376 7.47698 14.8371 6.64738C14.6269 6.43047 14.2825 6.42376 14.0656 6.63396C13.8487 6.84416 13.842 7.18852 14.0522 7.40542C14.4592 7.82582 14.8863 8.20819 15.3335 8.55032H14.3384C13.7101 8.55032 13.0124 8.31329 12.4511 7.77438C12.3147 7.64245 12.1202 7.59326 11.9368 7.64022C11.7534 7.68718 11.6081 7.82805 11.5522 8.00918C11.3241 8.75605 10.9596 9.39111 10.6779 9.80926C10.3961 9.39111 10.0339 8.76052 9.80578 8.00918C9.74987 7.82805 9.60452 7.68941 9.42116 7.64022C9.2378 7.59326 9.04326 7.64245 8.90685 7.77438C8.39702 8.2641 7.71052 8.55032 7.01956 8.55032H6.02672C7.45113 7.46356 8.66311 5.98325 9.53073 4.24801C9.53073 4.24577 9.53297 4.2413 9.5352 4.23907L10.6801 1.83746L11.3107 3.15902C11.4404 3.43182 11.7669 3.54587 12.0374 3.41617C12.3102 3.28648 12.4243 2.96224 12.2946 2.68943L11.1721 0.33255C11.0826 0.142479 10.8903 0.0217285 10.6801 0.0217285C10.4699 0.0217285 10.2776 0.142479 10.1882 0.33255L8.55354 3.76501C7.48691 5.8938 5.78745 7.66034 3.88898 8.60846C3.66313 8.7225 3.54462 8.97519 3.60276 9.22116C3.6609 9.46713 3.88004 9.64155 4.13272 9.64155H6.41581C5.2396 11.1152 3.82413 12.4099 2.194 13.4989C1.99498 13.633 1.90554 13.8813 1.97486 14.1116C2.04418 14.3419 2.25661 14.4984 2.49811 14.4984H5.38495C6.49631 14.4984 7.554 14.239 8.47528 13.7471C8.49988 13.7806 8.52448 13.8164 8.54907 13.8499V18.7001H5.71143C5.56608 18.7001 5.42744 18.7582 5.32458 18.8589L4.06116 20.1223L2.7016 18.8477C2.54283 18.6979 2.31028 18.6576 2.11126 18.7448C1.91224 18.832 1.78255 19.0288 1.78255 19.2457V26.8843H0.581748C0.279871 26.8843 0.0361328 27.1281 0.0361328 27.43C0.0361328 27.7318 0.279871 27.9756 0.581748 27.9756H0.579512Z" fill="white"/>
</svg>