<svg xmlns="http://www.w3.org/2000/svg" width="263" height="264" viewBox="0 0 263 264" fill="inherit">
  <path d="M26.7183 192.823L34.5079 200.129C36.5289 202.023 39.6869 201.981 41.6448 200.002L55.5397 186.107H80.1295V252.887H58.5503V227.203C58.5503 224.36 56.2555 222.066 53.4134 222.066C50.5712 222.066 48.2765 224.36 48.2765 227.203V252.887H26.6972V192.823H26.7183ZM78.1716 118.022C70.2346 123.243 60.6135 126.022 50.3607 126.022H38.95C52.3186 115.412 63.9398 103.243 73.6452 89.6639C77.54 88.7586 81.2664 87.2218 84.6769 85.0744C89.477 96.2956 96.0455 103.748 96.3824 104.106C97.3508 105.201 98.7403 105.812 100.214 105.812C101.667 105.812 103.077 105.18 104.046 104.106C104.382 103.727 110.951 96.2956 115.751 85.0744C119.162 87.2218 122.888 88.7586 126.783 89.6639C136.762 103.643 148.425 116.001 161.562 126.549H150.088C140.341 126.549 130.72 123.601 122.256 118.043C119.877 116.485 116.677 117.138 115.119 119.538C110.74 126.296 105.477 133.117 100.214 139.201C94.9929 133.138 89.6875 126.296 85.3085 119.538C83.7506 117.138 80.5506 116.485 78.1716 118.043V118.022ZM144.615 203.286L157.731 229.518C158.467 230.992 159.878 232.024 161.499 232.297C163.12 232.571 164.783 232.024 165.962 230.866L172.594 224.234V252.929H152.046V242.655C152.046 239.813 149.751 237.519 146.909 237.519C144.067 237.519 141.772 239.813 141.772 242.655V252.929H121.225V215.013L144.615 203.329V203.286ZM110.951 252.887H90.4033V143.517C93.8771 147.665 96.2982 150.254 96.4876 150.444C97.4561 151.475 98.8034 152.065 100.214 152.065C101.625 152.065 102.972 151.475 103.94 150.465C104.13 150.254 106.993 147.223 110.93 142.444V252.908L110.951 252.887ZM182.868 189.16L204.447 199.602V211.792C204.447 214.634 206.742 216.929 209.584 216.929C212.426 216.929 214.721 214.634 214.721 211.792V198.507L227.121 186.107H236.3V252.887H214.721V242.613C214.721 239.771 212.426 237.476 209.584 237.476C206.742 237.476 204.447 239.771 204.447 242.613V252.887H182.868V189.16ZM5.13905 263.161H257.858C260.7 263.161 262.995 260.866 262.995 258.024C262.995 255.182 260.7 252.887 257.858 252.887H246.553V180.97C246.553 178.128 244.258 175.833 241.416 175.833H224.974C223.605 175.833 222.3 176.381 221.331 177.328L208.51 190.149L179.941 176.339C178.341 175.56 176.468 175.665 174.973 176.612C173.478 177.56 172.573 179.202 172.573 180.97V209.666L163.71 218.529L151.478 194.086C150.215 191.539 147.12 190.528 144.594 191.792L121.204 203.476V129.349C130.172 134.233 140.067 136.78 150.067 136.78H177.247C179.499 136.78 181.499 135.307 182.152 133.138C182.805 130.97 181.962 128.633 180.089 127.37C164.994 117.306 151.646 104.948 140.299 90.5481H161.836C164.215 90.5481 166.278 88.906 166.825 86.5902C167.373 84.2744 166.257 81.8743 164.131 80.8217C155.225 76.3795 146.909 70.1689 139.372 62.3583C137.393 60.3162 134.151 60.253 132.109 62.232C130.067 64.211 130.004 67.4531 131.983 69.4952C135.814 73.4532 139.836 77.0532 144.046 80.2743H134.678C128.762 80.2743 122.193 78.0427 116.909 72.969C115.625 71.7268 113.793 71.2637 112.067 71.7058C110.34 72.1479 108.972 73.4742 108.446 75.1795C106.298 82.2112 102.867 88.1902 100.214 92.1271C97.5613 88.1902 94.1508 82.2533 92.0034 75.1795C91.477 73.4742 90.1086 72.1689 88.3823 71.7058C86.6559 71.2637 84.8243 71.7268 83.5401 72.969C78.74 77.5795 72.2768 80.2743 65.7714 80.2743H56.4239C69.8346 70.0426 81.2453 56.1056 89.4138 39.7685C89.4138 39.7475 89.4349 39.7054 89.4559 39.6843L100.235 17.0735L106.172 29.5158C107.393 32.0842 110.467 33.1579 113.014 31.9368C115.583 30.7158 116.656 27.6631 115.435 25.0946L104.867 2.90487C104.025 1.11537 102.214 -0.0214844 100.235 -0.0214844C98.2561 -0.0214844 96.4455 1.11537 95.6034 2.90487L80.2137 35.2211C70.1715 55.2635 54.1713 71.8953 36.2974 80.8217C34.171 81.8954 33.0552 84.2744 33.6026 86.5902C34.15 88.906 36.2131 90.5481 38.5921 90.5481H60.0871C49.0133 104.422 35.6868 116.612 20.3393 126.864C18.4655 128.128 17.6234 130.464 18.2761 132.633C18.9287 134.801 20.9287 136.275 23.2024 136.275H50.3818C60.8451 136.275 70.8031 133.833 79.4769 129.201C79.7085 129.517 79.94 129.854 80.1716 130.17V175.833H53.4555C52.087 175.833 50.7818 176.381 49.8133 177.328L37.9184 189.223L25.1183 177.223C23.6235 175.812 21.434 175.433 19.5603 176.255C17.6866 177.076 16.4655 178.928 16.4655 180.97V252.887H5.1601C2.31796 252.887 0.0231934 255.182 0.0231934 258.024C0.0231934 260.866 2.31796 263.161 5.1601 263.161H5.13905Z" fill="inherit"/>
</svg>