<svg xmlns="http://www.w3.org/2000/svg" width="22" height="22" viewBox="0 0 22 22" fill="inherit">
  <path d="M18.7783 3.22251C16.7014 1.14561 13.9379 0 10.9999 0C10.7628 0 10.5693 0.191568 10.5693 0.430554C10.5693 0.66954 10.7609 0.861108 10.9999 0.861108C16.5914 0.861108 21.1416 5.41132 21.1416 11.0028C21.1416 13.0683 20.5252 15.0542 19.3587 16.748C19.224 16.9433 19.2733 17.2108 19.4687 17.3454C19.5427 17.3966 19.628 17.4213 19.7115 17.4213C19.8481 17.4213 19.9827 17.3568 20.0662 17.2354C21.3313 15.3975 22.0008 13.2428 22.0008 11.0028C22.0008 8.06482 20.8571 5.30131 18.7783 3.22441V3.22251Z" fill="inherit"/>
  <path d="M2.66201 2.86967C3.74124 1.79044 5.30413 1.32954 6.79115 1.6387C7.10031 3.12573 6.63941 4.68672 5.56018 5.76785C4.59096 6.73707 3.23292 7.20745 1.89005 7.06899C2.59373 5.82096 3.61226 4.78914 4.86219 4.0665C5.06704 3.947 5.13722 3.68526 5.01962 3.47852C4.90013 3.27367 4.63838 3.20349 4.43164 3.32109C3.16274 4.05512 2.11006 5.07555 1.34379 6.30462C1.2812 5.03951 1.74969 3.78199 2.6639 2.86967H2.66201ZM9.52431 4.46101C9.30998 4.80052 9.10135 5.24246 8.90978 5.82096C8.67838 6.51326 8.50009 7.31936 8.3787 8.19374H4.9134C5.77831 6.32738 7.47586 4.92381 9.52621 4.46101H9.52431ZM10.9981 4.2979C11.3243 4.2979 11.8307 4.77018 12.2726 6.09408C12.4775 6.70862 12.6387 7.41988 12.7525 8.19564H9.2455C9.3593 7.41988 9.52052 6.70862 9.72536 6.09408C10.1673 4.77018 10.6718 4.2979 11 4.2979H10.9981ZM17.0846 8.19374H13.6193C13.4979 7.31936 13.3177 6.51515 13.0882 5.82096C12.8948 5.24246 12.6861 4.80052 12.4737 4.46101C14.524 4.92381 16.2216 6.32738 17.0865 8.19374H17.0846ZM17.701 11.0009C17.701 11.6837 17.5986 12.3437 17.407 12.964C17.371 12.9545 17.3331 12.9488 17.2932 12.9488H13.7179C13.7748 12.321 13.8052 11.6685 13.8052 11.0009C13.8052 10.3332 13.7748 9.68077 13.7179 9.05295H17.4127C17.6005 9.66939 17.701 10.3238 17.701 11.0009ZM12.4718 17.5407C12.6861 17.2012 12.8948 16.7593 13.0863 16.1808C13.3177 15.4885 13.496 14.6824 13.6174 13.808H17.0827C16.2178 15.6744 14.5203 17.0779 12.4699 17.5407H12.4718ZM10.9981 17.7039C10.6718 17.7039 10.1654 17.2316 9.72347 15.9077C9.51862 15.2931 9.3574 14.5819 9.2436 13.8061H12.7506C12.6368 14.5819 12.4756 15.2931 12.2708 15.9077C11.8288 17.2316 11.3243 17.7039 10.9962 17.7039H10.9981ZM9.05013 11.0009C9.05013 10.3313 9.08048 9.67697 9.14118 9.05295H12.8549C12.9156 9.67697 12.946 10.3313 12.946 11.0009C12.946 11.6704 12.9156 12.3248 12.8549 12.9488H9.14118C9.08048 12.3248 9.05013 11.6704 9.05013 11.0009ZM4.91151 13.808H8.3768C8.49819 14.6824 8.67838 15.4866 8.90788 16.1808C9.10135 16.7593 9.30998 17.2012 9.52242 17.5407C7.47207 17.0779 5.77451 15.6744 4.90961 13.808H4.91151ZM4.58907 12.964C4.3975 12.3419 4.29508 11.6837 4.29508 11.0009C4.29508 10.3181 4.3956 9.66939 4.58338 9.05295H8.27817C8.22127 9.68077 8.19092 10.3351 8.19092 11.0009C8.19092 11.6666 8.22127 12.321 8.27817 12.9488H4.70287C4.66304 12.9488 4.6251 12.9545 4.58907 12.964ZM17.3426 19.4678C17.2079 19.2724 16.9405 19.2231 16.7451 19.3578C15.0513 20.5243 13.0655 21.1407 11 21.1407C5.40845 21.1407 0.858234 16.5905 0.858234 10.999C0.858234 9.92165 1.02514 8.86708 1.35517 7.85613C1.6852 7.91872 2.01902 7.94907 2.34905 7.94907C2.99583 7.94907 3.63692 7.83147 4.24007 7.60766C3.72606 8.62809 3.43587 9.78129 3.43587 10.999C3.43587 15.1699 6.82908 18.5631 11 18.5631C15.1708 18.5631 18.564 15.1699 18.564 10.999C18.564 6.82811 15.1708 3.43489 11 3.43489C9.71588 3.43489 8.50768 3.75544 7.44741 4.32255C7.79261 3.32109 7.84383 2.221 7.56311 1.16832C7.52328 1.02038 7.40758 0.902781 7.25964 0.864847C5.40465 0.369805 3.41121 0.904677 2.05506 2.25893C0.698911 3.61318 0.192488 5.51369 0.626835 7.32884C0.209558 8.5048 -0.000976562 9.73767 -0.000976562 10.999C-0.000976562 13.937 1.14274 16.7005 3.22154 18.7774C5.29844 20.8543 8.06195 21.9999 11 21.9999C13.24 21.9999 15.3946 21.3304 17.2325 20.0653C17.4279 19.9306 17.4772 19.6632 17.3426 19.4678Z" fill="inherit"/>
  <path d="M18.4748 18.0471C18.361 18.0471 18.251 18.0926 18.1713 18.1723C18.0917 18.2519 18.0461 18.3638 18.0461 18.4757C18.0461 18.5876 18.0917 18.6995 18.1713 18.7792C18.251 18.8588 18.3629 18.9044 18.4748 18.9044C18.5867 18.9044 18.6986 18.8588 18.7782 18.7792C18.8579 18.6995 18.9034 18.5876 18.9034 18.4757C18.9034 18.3638 18.8579 18.2519 18.7782 18.1723C18.6986 18.0926 18.5867 18.0471 18.4748 18.0471Z" fill="inherit"/>
</svg>