<svg width="24" height="24" viewBox="0 0 24 24" fill="inherit" xmlns="http://www.w3.org/2000/svg">
<path d="M23.0626 13.3326L22.5929 13.5003C21.6348 13.8417 20.8629 14.5742 20.4739 15.5137C20.0848 16.4532 20.1117 17.5189 20.5484 18.4356L20.7615 18.8846L18.8784 20.7677L18.4294 20.5546C17.5106 20.118 16.447 20.0911 15.5075 20.4801C14.568 20.8691 13.8355 21.641 13.4941 22.5991L13.3264 23.0688H10.6653L10.4977 22.5991C10.1562 21.641 9.42369 20.8691 8.48422 20.4801C7.54475 20.0911 6.48112 20.118 5.56234 20.5546L5.1133 20.7677L3.23021 18.8846L3.44335 18.4356C3.87998 17.5168 3.90688 16.4532 3.51785 15.5137C3.12881 14.5742 2.35696 13.8417 1.39886 13.5003L0.929126 13.3326V10.6715L1.39886 10.5039C2.35696 10.1624 3.12881 9.4299 3.51785 8.49043C3.90688 7.55096 3.87998 6.48526 3.44335 5.56855L3.23021 5.1195L5.1133 3.23642L5.56234 3.44956C6.48112 3.88619 7.54475 3.91309 8.48422 3.52406C9.42369 3.13502 10.1562 2.36317 10.4977 1.40507L10.6653 0.935333H13.3264L13.4941 1.40507C13.8355 2.36317 14.568 3.13502 15.5075 3.52406C16.447 3.91309 17.5106 3.88619 18.4294 3.44956L18.8784 3.23642L20.7615 5.1195L20.5484 5.56855C20.1117 6.48733 20.0848 7.55096 20.4739 8.49043C20.8629 9.4299 21.6348 10.1624 22.5929 10.5039L23.0626 10.6715V13.3326ZM23.6875 9.89757L22.9074 9.62028C22.1997 9.36782 21.6286 8.82566 21.3409 8.13037C21.0533 7.43508 21.074 6.64873 21.3968 5.97L21.7527 5.2209C21.8376 5.04087 21.8003 4.82773 21.6617 4.68909L19.3109 2.33833C19.1702 2.19762 18.9571 2.16037 18.7791 2.24728L18.03 2.60321C17.3513 2.92602 16.5629 2.94672 15.8696 2.65908C15.1743 2.37144 14.6322 1.80031 14.3797 1.0926L14.1024 0.312468C14.0362 0.126229 13.8583 0 13.6617 0H10.3383C10.1397 0 9.96379 0.124159 9.89757 0.312468L9.62028 1.0926C9.36782 1.80031 8.82566 2.37144 8.13037 2.65908C7.43508 2.94672 6.64873 2.92602 5.97 2.60321L5.2209 2.24728C5.04087 2.16244 4.82773 2.19969 4.68908 2.33833L2.33833 4.68909C2.19762 4.8298 2.16037 5.04294 2.24728 5.2209L2.60321 5.97C2.92602 6.64873 2.94672 7.43715 2.65908 8.13037C2.37144 8.82566 1.80031 9.36782 1.0926 9.62028L0.312468 9.89757C0.126229 9.96379 0 10.1417 0 10.3383V13.6617C0 13.8603 0.124159 14.0362 0.312468 14.1024L1.0926 14.3797C1.80031 14.6322 2.37144 15.1743 2.65908 15.8696C2.94672 16.5649 2.92602 17.3513 2.60321 18.03L2.24728 18.7791C2.16244 18.9591 2.19969 19.1723 2.33833 19.3109L4.68908 21.6617C4.8298 21.8024 5.04294 21.8396 5.2209 21.7527L5.97 21.3968C6.64873 21.074 7.43714 21.0533 8.13037 21.3409C8.82566 21.6286 9.36782 22.1997 9.62028 22.9074L9.89757 23.6875C9.96379 23.8738 10.1417 24 10.3383 24H13.6617C13.8603 24 14.0362 23.8758 14.1024 23.6875L14.3797 22.9074C14.6322 22.1997 15.1743 21.6286 15.8696 21.3409C16.5649 21.0533 17.3513 21.074 18.03 21.3968L18.7791 21.7527C18.9591 21.8376 19.1723 21.8003 19.3109 21.6617L21.6617 19.3109C21.8024 19.1702 21.8396 18.9571 21.7527 18.7791L21.3968 18.03C21.074 17.3513 21.0533 16.5629 21.3409 15.8696C21.6286 15.1743 22.1997 14.6322 22.9074 14.3797L23.6875 14.1024C23.8738 14.0362 24 13.8583 24 13.6617V10.3383C24 10.1397 23.8758 9.96379 23.6875 9.89757Z" fill="inherit"/>
<path d="M11.5095 14.0155C10.8121 14.1107 10.0982 13.8769 9.59328 13.3719C9.08836 12.867 8.85453 12.1531 8.94972 11.4558C9.64708 11.3606 10.361 11.5944 10.8659 12.0993C11.3708 12.6042 11.6047 13.3181 11.5095 14.0155ZM13.3325 12.5152C14.0092 11.8386 14.9777 11.5344 15.913 11.6917C16.0703 12.627 15.7661 13.5954 15.0894 14.2721C14.4127 14.9488 13.4443 15.253 12.509 15.0957C12.3517 14.1604 12.6559 13.1919 13.3325 12.5152ZM14.2306 5.03051C13.9844 4.94981 13.7195 5.08431 13.6409 5.33056C13.5622 5.57681 13.6947 5.84168 13.9409 5.92032C16.5359 6.76253 18.2803 9.16502 18.2803 11.8965C18.2803 15.2033 15.7123 17.9203 12.4676 18.1604V16.0352C12.6435 16.06 12.8194 16.0703 12.9952 16.0703C14.0154 16.0703 15.0149 15.6689 15.7537 14.9322C16.7324 13.9534 17.1194 12.5132 16.7614 11.1743C16.718 11.0129 16.5917 10.8846 16.4303 10.8432C15.0915 10.4852 13.6512 10.8722 12.6724 11.851C12.4965 12.0269 12.3393 12.2193 12.2027 12.4221C12.0454 12.06 11.8199 11.7227 11.5322 11.4371C10.7252 10.6301 9.53948 10.3114 8.43446 10.6073C8.27305 10.6508 8.14475 10.777 8.10337 10.9384C7.80952 12.0414 8.12613 13.2292 8.93317 14.0362C9.54155 14.6446 10.3651 14.9757 11.2053 14.9757C11.315 14.9757 11.4226 14.9695 11.5322 14.9591V18.1645C8.28547 17.9245 5.71951 15.2054 5.71951 11.9007C5.71951 9.16709 7.46602 6.7646 10.0651 5.92239C10.3113 5.84169 10.4458 5.57888 10.3672 5.33263C10.2865 5.08638 10.0237 4.95188 9.77745 5.03051C8.3372 5.49611 7.09768 6.39006 6.19338 7.61303C5.27046 8.86083 4.7821 10.3445 4.7821 11.9007C4.7821 15.882 8.02059 19.1205 12.002 19.1205C15.9833 19.1205 19.2218 15.882 19.2218 11.9007C19.2218 10.3445 18.7355 8.8629 17.8126 7.61509C16.9104 6.39212 15.6729 5.50025 14.2327 5.03258L14.2306 5.03051Z" fill="inherit"/>
<path d="M12.0021 5.6182C12.1263 5.6182 12.2463 5.56853 12.3332 5.48162C12.4201 5.39471 12.4718 5.27262 12.4718 5.15053C12.4718 5.02844 12.4222 4.90635 12.3332 4.81944C12.2463 4.73253 12.1263 4.68286 12.0021 4.68286C11.8779 4.68286 11.7579 4.73253 11.671 4.81944C11.5841 4.90635 11.5344 5.02844 11.5344 5.15053C11.5344 5.27262 11.5841 5.39471 11.671 5.48162C11.7579 5.56853 11.88 5.6182 12.0021 5.6182Z" fill="inherit"/>
</svg>
