<svg xmlns="http://www.w3.org/2000/svg" width="18" height="18" viewBox="0 0 18 18" fill="none">
  <path fill-rule="evenodd" clip-rule="evenodd" d="M0.294707 0.292893C-0.0958173 0.683417 -0.095817 1.31658 0.294707 1.70711L7.36488 8.77728L0.292893 15.8493C-0.0976311 16.2398 -0.0976311 16.873 0.292893 17.2635C0.683417 17.654 1.31658 17.654 1.70711 17.2635L8.7791 10.1915L15.8511 17.2635C16.2416 17.654 16.8747 17.654 17.2653 17.2635C17.6558 16.8729 17.6558 16.2398 17.2653 15.8492L10.1933 8.77728L17.2635 1.70714C17.654 1.31661 17.654 0.683447 17.2635 0.292922C16.8729 -0.097602 16.2398 -0.0976018 15.8492 0.292923L8.7791 7.36307L1.70892 0.292893C1.3184 -0.0976311 0.685231 -0.0976311 0.294707 0.292893Z" fill="black"/>
</svg>